{
  "accessors": [
    {
      "bufferView": 0,
      "componentType": 5126,
      "count": 835,
      "max": [
        0.9530079960823059,
        5.532495021820068,
        1.0678447484970093
      ],
      "min": [
        -1.1826555728912354,
        0,
        -1.0674840211868286
      ],
      "type": "VEC3"
    },
    {
      "bufferView": 0,
      "byteOffset": 12,
      "componentType": 5126,
      "count": 835,
      "type": "VEC3"
    },
    {
      "bufferView": 1,
      "componentType": 5125,
      "count": 2463,
      "type": "SCALAR"
    },
    {
      "bufferView": 0,
      "byteOffset": 26720,
      "componentType": 5126,
      "count": 1052,
      "max": [
        0.9530079960823059,
        5.532495021820068,
        1.0678447484970093
      ],
      "min": [
        -1.1826555728912354,
        0,
        -1.0674840211868286
      ],
      "type": "VEC3"
    },
    {
      "bufferView": 0,
      "byteOffset": 26732,
      "componentType": 5126,
      "count": 1052,
      "type": "VEC3"
    },
    {
      "bufferView": 1,
      "byteOffset": 9852,
      "componentType": 5125,
      "count": 3072,
      "type": "SCALAR"
    },
    {
      "bufferView": 0,
      "byteOffset": 60384,
      "componentType": 5126,
      "count": 362,
      "max": [
        0.15297183394432068,
        5.34111213684082,
        0.26783841848373413
      ],
      "min": [
        -0.38265910744667053,
        0,
        -0.2678016126155853
      ],
      "type": "VEC3"
    },
    {
      "bufferView": 0,
      "byteOffset": 60396,
      "componentType": 5126,
      "count": 362,
      "type": "VEC3"
    },
    {
      "bufferView": 1,
      "byteOffset": 22140,
      "componentType": 5125,
      "count": 1035,
      "type": "SCALAR"
    },
    {
      "bufferView": 0,
      "byteOffset": 71968,
      "componentType": 5126,
      "count": 514,
      "max": [
        0.9530079960823059,
        5.532495021820068,
        1.0678447484970093
      ],
      "min": [
        -1.1826555728912354,
        0.305520236492157,
        -1.0674840211868286
      ],
      "type": "VEC3"
    },
    {
      "bufferView": 0,
      "byteOffset": 71980,
      "componentType": 5126,
      "count": 514,
      "type": "VEC3"
    },
    {
      "bufferView": 1,
      "byteOffset": 26280,
      "componentType": 5125,
      "count": 1536,
      "type": "SCALAR"
    }
  ],
  "asset": {
    "version": "2.0"
  },
  "bufferViews": [
    {
      "buffer": 0,
      "byteLength": 88416,
      "byteStride": 32,
      "target": 34962,
      "byteOffset": 0
    },
    {
      "buffer": 0,
      "byteLength": 32424,
      "byteOffset": 88416,
      "target": 34963
    }
  ],
  "buffers": [
    {
      "uri": "Part1_data.bin",
      "byteLength": 120840
    }
  ],
  "extensionsUsed": [
    "KHR_materials_transmission"
  ],
  "materials": [
    {
      "doubleSided": true,
      "name": "XID_Default_52DCA0BC007841B2BAED83ACE240BB57_shader",
      "pbrMetallicRoughness": {
        "baseColorFactor": [
          0.52252197265625,
          0.52252197265625,
          0.52252197265625,
          1
        ],
        "metallicFactor": 0,
        "roughnessFactor": 0.699999988079071
      }
    },
    {
      "doubleSided": true,
      "name": "XID_BlueWallPaintGlossy_D229C5DCD3B444E0B052E2E2D29439B1_shader",
      "pbrMetallicRoughness": {
        "baseColorFactor": [
          0.009134059771895409,
          0.018500199541449547,
          0.9386860132217407,
          1
        ],
        "metallicFactor": 0,
        "roughnessFactor": 0.47999998927116394
      }
    },
    {
      "doubleSided": true,
      "name": "XID_Gray_C404337CD8F642608AB8DE40662A2464_shader",
      "pbrMetallicRoughness": {
        "baseColorFactor": [
          0.13998499512672424,
          0.13998499512672424,
          0.13998499512672424,
          1
        ],
        "metallicFactor": 0,
        "roughnessFactor": 0.699999988079071
      }
    },
    {
      "doubleSided": true,
      "extensions": {
        "KHR_materials_transmission": {
          "transmissionFactor": 1
        }
      },
      "name": "XID_BlueGlazing_DDFC7D6DB5AF47D88629C152E2BE3BD4_shader",
      "pbrMetallicRoughness": {
        "metallicFactor": 0,
        "roughnessFactor": 0
      }
    }
  ],
  "meshes": [
    {
      "name": "Solid1",
      "primitives": [
        {
          "attributes": {
            "NORMAL": 1,
            "POSITION": 0
          },
          "indices": 2,
          "material": 0,
          "mode": 4
        },
        {
          "attributes": {
            "NORMAL": 4,
            "POSITION": 3
          },
          "indices": 5,
          "material": 1,
          "mode": 4
        },
        {
          "attributes": {
            "NORMAL": 7,
            "POSITION": 6
          },
          "indices": 8,
          "material": 2,
          "mode": 4
        },
        {
          "attributes": {
            "NORMAL": 10,
            "POSITION": 9
          },
          "indices": 11,
          "material": 3,
          "mode": 4
        }
      ]
    }
  ],
  "nodes": [
    {
      "matrix": [
        0.01,
        0,
        0,
        0,
        0,
        0.01,
        0,
        0,
        0,
        0,
        0.01,
        0,
        0,
        0,
        0,
        1
      ],
      "mesh": 0,
      "name": "Solid1"
    }
  ],
  "scenes": [
    {
      "nodes": [
        0
      ]
    }
  ]
}