{
  "accessors": [
    {
      "bufferView": 0,
      "componentType": 5126,
      "count": 951,
      "max": [
        0.9530079960823059,
        5.532495021820068,
        1.0678447484970093
      ],
      "min": [
        -1.1826555728912354,
        0.0,
        -1.0674840211868286
      ],
      "type": "VEC3"
    },
    {
      "bufferView": 0,
      "byteOffset": 12,
      "componentType": 5126,
      "count": 951,
      "type": "VEC3"
    },
    {
      "bufferView": 1,
      "componentType": 5125,
      "count": 2763,
      "type": "SCALAR"
    },
    {
      "bufferView": 0,
      "byteOffset": 30432,
      "componentType": 5126,
      "count": 1052,
      "max": [
        0.9530079960823059,
        5.532495021820068,
        1.0678447484970093
      ],
      "min": [
        -1.1826555728912354,
        0.0,
        -1.0674840211868286
      ],
      "type": "VEC3"
    },
    {
      "bufferView": 0,
      "byteOffset": 30444,
      "componentType": 5126,
      "count": 1052,
      "type": "VEC3"
    },
    {
      "bufferView": 1,
      "byteOffset": 11052,
      "componentType": 5125,
      "count": 3072,
      "type": "SCALAR"
    },
    {
      "bufferView": 0,
      "byteOffset": 64096,
      "componentType": 5126,
      "count": 364,
      "max": [
        0.1821202039718628,
        5.359399795532227,
        0.2949579656124115
      ],
      "min": [
        -0.41171565651893616,
        0.0,
        -0.2949579656124115
      ],
      "type": "VEC3"
    },
    {
      "bufferView": 0,
      "byteOffset": 64108,
      "componentType": 5126,
      "count": 364,
      "type": "VEC3"
    },
    {
      "bufferView": 1,
      "byteOffset": 23340,
      "componentType": 5125,
      "count": 1053,
      "type": "SCALAR"
    },
    {
      "bufferView": 0,
      "byteOffset": 75744,
      "componentType": 5126,
      "count": 514,
      "max": [
        0.9530079960823059,
        5.532495021820068,
        1.0678447484970093
      ],
      "min": [
        -1.1826555728912354,
        0.305520236492157,
        -1.0674840211868286
      ],
      "type": "VEC3"
    },
    {
      "bufferView": 0,
      "byteOffset": 75756,
      "componentType": 5126,
      "count": 514,
      "type": "VEC3"
    },
    {
      "bufferView": 1,
      "byteOffset": 27552,
      "componentType": 5125,
      "count": 1536,
      "type": "SCALAR"
    },
    {
      "bufferView": 2,
      "componentType": 5126,
      "count": 24,
      "max": [
        0.1912815123796463,
        0.024945389479398727,
        0.5943599939346313
      ],
      "min": [
        -0.30751273036003113,
        -0.024945389479398727,
        0.0
      ],
      "type": "VEC3"
    },
    {
      "bufferView": 2,
      "byteOffset": 12,
      "componentType": 5126,
      "count": 24,
      "type": "VEC3"
    },
    {
      "bufferView": 3,
      "componentType": 5125,
      "count": 36,
      "type": "SCALAR"
    },
    {
      "bufferView": 4,
      "componentType": 5126,
      "count": 24,
      "max": [
        0.20589418709278107,
        0.024945389479398727,
        0.5943599939346313
      ],
      "min": [
        -0.23508338630199432,
        -0.23508338630199432,
        0.0
      ],
      "type": "VEC3"
    },
    {
      "bufferView": 4,
      "byteOffset": 12,
      "componentType": 5126,
      "count": 24,
      "type": "VEC3"
    },
    {
      "bufferView": 5,
      "componentType": 5125,
      "count": 36,
      "type": "SCALAR"
    },
    {
      "bufferView": 6,
      "componentType": 5126,
      "count": 24,
      "max": [
        0.20523124933242798,
        0.3072381317615509,
        0.5943599939346313
      ],
      "min": [
        -0.024282462894916534,
        -0.010058125481009483,
        0.0
      ],
      "type": "VEC3"
    },
    {
      "bufferView": 6,
      "byteOffset": 12,
      "componentType": 5126,
      "count": 24,
      "type": "VEC3"
    },
    {
      "bufferView": 7,
      "componentType": 5125,
      "count": 36,
      "type": "SCALAR"
    },
    {
      "bufferView": 8,
      "componentType": 5126,
      "count": 24,
      "max": [
        0.20523124933242798,
        0.23442044854164124,
        0.5943599939346313
      ],
      "min": [
        -0.23442044854164124,
        -0.024282462894916534,
        0.0
      ],
      "type": "VEC3"
    },
    {
      "bufferView": 8,
      "byteOffset": 12,
      "componentType": 5126,
      "count": 24,
      "type": "VEC3"
    },
    {
      "bufferView": 9,
      "componentType": 5125,
      "count": 36,
      "type": "SCALAR"
    },
    {
      "bufferView": 10,
      "componentType": 5126,
      "count": 24,
      "max": [
        0.20523124933242798,
        0.010058125481009483,
        0.5943599939346313
      ],
      "min": [
        -0.024282462894916534,
        -0.3072381317615509,
        0.0
      ],
      "type": "VEC3"
    },
    {
      "bufferView": 10,
      "byteOffset": 12,
      "componentType": 5126,
      "count": 24,
      "type": "VEC3"
    },
    {
      "bufferView": 11,
      "componentType": 5125,
      "count": 36,
      "type": "SCALAR"
    },
    {
      "bufferView": 12,
      "componentType": 5126,
      "count": 24,
      "max": [
        0.2345069795846939,
        0.02436899021267891,
        0.5943599939346313
      ],
      "min": [
        0.15657980740070343,
        -0.2345069795846939,
        0.0
      ],
      "type": "VEC3"
    },
    {
      "bufferView": 12,
      "byteOffset": 12,
      "componentType": 5126,
      "count": 24,
      "type": "VEC3"
    },
    {
      "bufferView": 13,
      "componentType": 5125,
      "count": 36,
      "type": "SCALAR"
    },
    {
      "bufferView": 14,
      "componentType": 5126,
      "count": 24,
      "max": [
        0.30751273036003113,
        0.024945389479398727,
        0.5943599939346313
      ],
      "min": [
        0.17061607539653778,
        -0.024945389479398727,
        0.0
      ],
      "type": "VEC3"
    },
    {
      "bufferView": 14,
      "byteOffset": 12,
      "componentType": 5126,
      "count": 24,
      "type": "VEC3"
    },
    {
      "bufferView": 15,
      "componentType": 5125,
      "count": 36,
      "type": "SCALAR"
    },
    {
      "bufferView": 16,
      "componentType": 5126,
      "count": 24,
      "max": [
        0.2345069795846939,
        0.2345069795846939,
        0.5943599939346313
      ],
      "min": [
        0.15657980740070343,
        -0.02436899021267891,
        0.0
      ],
      "type": "VEC3"
    },
    {
      "bufferView": 16,
      "byteOffset": 12,
      "componentType": 5126,
      "count": 24,
      "type": "VEC3"
    },
    {
      "bufferView": 17,
      "componentType": 5125,
      "count": 36,
      "type": "SCALAR"
    },
    {
      "bufferView": 18,
      "componentType": 5126,
      "count": 456,
      "max": [
        0.259480357170105,
        0.1675262451171875,
        0.3165105879306793
      ],
      "min": [
        -0.07544934749603271,
        -0.16752219200134277,
        0.27711889147758484
      ],
      "type": "VEC3"
    },
    {
      "bufferView": 18,
      "byteOffset": 12,
      "componentType": 5126,
      "count": 456,
      "type": "VEC3"
    },
    {
      "bufferView": 19,
      "componentType": 5125,
      "count": 1344,
      "type": "SCALAR"
    },
    {
      "bufferView": 20,
      "componentType": 5126,
      "count": 539,
      "max": [
        0.03962400183081627,
        0.037684664130210876,
        4.160520076751709
      ],
      "min": [
        -0.03962400183081627,
        -0.037684664130210876,
        0.0
      ],
      "type": "VEC3"
    },
    {
      "bufferView": 20,
      "byteOffset": 12,
      "componentType": 5126,
      "count": 539,
      "type": "VEC3"
    },
    {
      "bufferView": 21,
      "componentType": 5125,
      "count": 2559,
      "type": "SCALAR"
    }
  ],
  "asset": {
    "version": "2.0"
  },
  "bufferViews": [
    {
      "buffer": 0,
      "byteLength": 92192,
      "byteStride": 32,
      "target": 34962
    },
    {
      "buffer": 0,
      "byteLength": 33696,
      "byteOffset": 92192,
      "target": 34963
    },
    {
      "buffer": 0,
      "byteLength": 768,
      "byteOffset": 125888,
      "byteStride": 32,
      "target": 34962
    },
    {
      "buffer": 0,
      "byteLength": 144,
      "byteOffset": 126656,
      "target": 34963
    },
    {
      "buffer": 0,
      "byteLength": 768,
      "byteOffset": 126800,
      "byteStride": 32,
      "target": 34962
    },
    {
      "buffer": 0,
      "byteLength": 144,
      "byteOffset": 127568,
      "target": 34963
    },
    {
      "buffer": 0,
      "byteLength": 768,
      "byteOffset": 127712,
      "byteStride": 32,
      "target": 34962
    },
    {
      "buffer": 0,
      "byteLength": 144,
      "byteOffset": 128480,
      "target": 34963
    },
    {
      "buffer": 0,
      "byteLength": 768,
      "byteOffset": 128624,
      "byteStride": 32,
      "target": 34962
    },
    {
      "buffer": 0,
      "byteLength": 144,
      "byteOffset": 129392,
      "target": 34963
    },
    {
      "buffer": 0,
      "byteLength": 768,
      "byteOffset": 129536,
      "byteStride": 32,
      "target": 34962
    },
    {
      "buffer": 0,
      "byteLength": 144,
      "byteOffset": 130304,
      "target": 34963
    },
    {
      "buffer": 0,
      "byteLength": 768,
      "byteOffset": 130448,
      "byteStride": 32,
      "target": 34962
    },
    {
      "buffer": 0,
      "byteLength": 144,
      "byteOffset": 131216,
      "target": 34963
    },
    {
      "buffer": 0,
      "byteLength": 768,
      "byteOffset": 131360,
      "byteStride": 32,
      "target": 34962
    },
    {
      "buffer": 0,
      "byteLength": 144,
      "byteOffset": 132128,
      "target": 34963
    },
    {
      "buffer": 0,
      "byteLength": 768,
      "byteOffset": 132272,
      "byteStride": 32,
      "target": 34962
    },
    {
      "buffer": 0,
      "byteLength": 144,
      "byteOffset": 133040,
      "target": 34963
    },
    {
      "buffer": 0,
      "byteLength": 14592,
      "byteOffset": 133184,
      "byteStride": 32,
      "target": 34962
    },
    {
      "buffer": 0,
      "byteLength": 5376,
      "byteOffset": 147776,
      "target": 34963
    },
    {
      "buffer": 0,
      "byteLength": 17248,
      "byteOffset": 153152,
      "byteStride": 32,
      "target": 34962
    },
    {
      "buffer": 0,
      "byteLength": 10236,
      "byteOffset": 170400,
      "target": 34963
    }
  ],
  "buffers": [
    {
      "byteLength": 180636,
      "uri": "spiral_stair.bin"
    }
  ],
  "extensionsUsed": [
    "KHR_materials_transmission"
  ],
  "materials": [
    {
      "doubleSided": true,
      "name": "XID_Default_930A2A9AABA1419A86AF9F266A83024A_shader",
      "pbrMetallicRoughness": {
        "baseColorFactor": [
          0.52252197265625,
          0.52252197265625,
          0.52252197265625,
          1.0
        ],
        "metallicFactor": 0.0,
        "roughnessFactor": 0.699999988079071
      }
    },
    {
      "doubleSided": true,
      "name": "XID_BlueWallPaintGlossy_92C529403412487FA8B8E5F2D40AF55C_shader",
      "pbrMetallicRoughness": {
        "baseColorFactor": [
          0.009134059771895409,
          0.018500199541449547,
          0.9386860132217407,
          1.0
        ],
        "metallicFactor": 0.0,
        "roughnessFactor": 0.47999998927116394
      }
    },
    {
      "doubleSided": true,
      "name": "XID_Gray_4E4A26623158439C90D72C360D0D7546_shader",
      "pbrMetallicRoughness": {
        "baseColorFactor": [
          0.13998499512672424,
          0.13998499512672424,
          0.13998499512672424,
          1.0
        ],
        "metallicFactor": 0.0,
        "roughnessFactor": 0.699999988079071
      }
    },
    {
      "doubleSided": true,
      "extensions": {
        "KHR_materials_transmission": {
          "transmissionFactor": 1.0
        }
      },
      "name": "XID_BlueGlazing_73CCD8E5E9B5432E9335BB54866C5C1C_shader",
      "pbrMetallicRoughness": {
        "metallicFactor": 0.0,
        "roughnessFactor": 0.0
      }
    }
  ],
  "meshes": [
    {
      "name": "Solid1",
      "primitives": [
        {
          "attributes": {
            "NORMAL": 1,
            "POSITION": 0
          },
          "indices": 2,
          "material": 0,
          "mode": 4
        },
        {
          "attributes": {
            "NORMAL": 4,
            "POSITION": 3
          },
          "indices": 5,
          "material": 1,
          "mode": 4
        },
        {
          "attributes": {
            "NORMAL": 7,
            "POSITION": 6
          },
          "indices": 8,
          "material": 2,
          "mode": 4
        },
        {
          "attributes": {
            "NORMAL": 10,
            "POSITION": 9
          },
          "indices": 11,
          "material": 3,
          "mode": 4
        }
      ]
    },
    {
      "name": "Solid13",
      "primitives": [
        {
          "attributes": {
            "NORMAL": 13,
            "POSITION": 12
          },
          "indices": 14,
          "material": 0,
          "mode": 4
        }
      ]
    },
    {
      "name": "Solid14",
      "primitives": [
        {
          "attributes": {
            "NORMAL": 16,
            "POSITION": 15
          },
          "indices": 17,
          "material": 0,
          "mode": 4
        }
      ]
    },
    {
      "name": "Solid15",
      "primitives": [
        {
          "attributes": {
            "NORMAL": 19,
            "POSITION": 18
          },
          "indices": 20,
          "material": 0,
          "mode": 4
        }
      ]
    },
    {
      "name": "Solid16",
      "primitives": [
        {
          "attributes": {
            "NORMAL": 22,
            "POSITION": 21
          },
          "indices": 23,
          "material": 0,
          "mode": 4
        }
      ]
    },
    {
      "name": "Solid17",
      "primitives": [
        {
          "attributes": {
            "NORMAL": 25,
            "POSITION": 24
          },
          "indices": 26,
          "material": 0,
          "mode": 4
        }
      ]
    },
    {
      "name": "Solid18",
      "primitives": [
        {
          "attributes": {
            "NORMAL": 28,
            "POSITION": 27
          },
          "indices": 29,
          "material": 0,
          "mode": 4
        }
      ]
    },
    {
      "name": "Solid19",
      "primitives": [
        {
          "attributes": {
            "NORMAL": 31,
            "POSITION": 30
          },
          "indices": 32,
          "material": 0,
          "mode": 4
        }
      ]
    },
    {
      "name": "Solid20",
      "primitives": [
        {
          "attributes": {
            "NORMAL": 34,
            "POSITION": 33
          },
          "indices": 35,
          "material": 0,
          "mode": 4
        }
      ]
    },
    {
      "name": "Solid21",
      "primitives": [
        {
          "attributes": {
            "NORMAL": 37,
            "POSITION": 36
          },
          "indices": 38,
          "material": 0,
          "mode": 4
        }
      ]
    },
    {
      "name": "Solid1",
      "primitives": [
        {
          "attributes": {
            "NORMAL": 40,
            "POSITION": 39
          },
          "indices": 41,
          "material": 0,
          "mode": 4
        }
      ]
    }
  ],
  "nodes": [
    {
      "matrix": [
        0.01,
        0.0,
        0.0,
        0.0,
        0.0,
        0.01,
        0.0,
        0.0,
        0.0,
        0.0,
        0.01,
        0.0,
        0.0,
        0.0,
        0.0,
        1.0
      ],
      "mesh": 0,
      "name": "Solid1"
    },
    {
      "children": [
        0
      ],
      "matrix": [
        0.5689726478260504,
        -0.008930032869229443,
        -0.8223079596712948,
        0.0,
        0.008033556653662451,
        0.9999536816040587,
        -0.005300623923765339,
        0.0,
        0.8223172064314996,
        -0.003590147551742051,
        0.5690180338506426,
        0.0,
        0.0006473439739060802,
        2.1121772711562094e-05,
        -0.0009633755705491458,
        1.0
      ],
      "name": "Part1:1"
    },
    {
      "matrix": [
        0.01,
        0.0,
        0.0,
        0.0,
        0.0,
        0.01,
        0.0,
        0.0,
        0.0,
        0.0,
        0.01,
        0.0,
        0.0,
        0.0,
        0.0,
        1.0
      ],
      "mesh": 1,
      "name": "Solid13"
    },
    {
      "matrix": [
        0.01,
        0.0,
        0.0,
        0.0,
        0.0,
        0.01,
        0.0,
        0.0,
        0.0,
        0.0,
        0.01,
        0.0,
        0.0,
        0.0,
        0.0,
        1.0
      ],
      "mesh": 2,
      "name": "Solid14"
    },
    {
      "matrix": [
        0.01,
        0.0,
        0.0,
        0.0,
        0.0,
        0.01,
        0.0,
        0.0,
        0.0,
        0.0,
        0.01,
        0.0,
        0.0,
        0.0,
        0.0,
        1.0
      ],
      "mesh": 3,
      "name": "Solid15"
    },
    {
      "matrix": [
        0.01,
        0.0,
        0.0,
        0.0,
        0.0,
        0.01,
        0.0,
        0.0,
        0.0,
        0.0,
        0.01,
        0.0,
        0.0,
        0.0,
        0.0,
        1.0
      ],
      "mesh": 4,
      "name": "Solid16"
    },
    {
      "matrix": [
        0.01,
        0.0,
        0.0,
        0.0,
        0.0,
        0.01,
        0.0,
        0.0,
        0.0,
        0.0,
        0.01,
        0.0,
        0.0,
        0.0,
        0.0,
        1.0
      ],
      "mesh": 5,
      "name": "Solid17"
    },
    {
      "matrix": [
        0.01,
        0.0,
        0.0,
        0.0,
        0.0,
        0.01,
        0.0,
        0.0,
        0.0,
        0.0,
        0.01,
        0.0,
        0.0,
        0.0,
        0.0,
        1.0
      ],
      "mesh": 6,
      "name": "Solid18"
    },
    {
      "matrix": [
        0.01,
        0.0,
        0.0,
        0.0,
        0.0,
        0.01,
        0.0,
        0.0,
        0.0,
        0.0,
        0.01,
        0.0,
        0.0,
        0.0,
        0.0,
        1.0
      ],
      "mesh": 7,
      "name": "Solid19"
    },
    {
      "matrix": [
        0.01,
        0.0,
        0.0,
        0.0,
        0.0,
        0.01,
        0.0,
        0.0,
        0.0,
        0.0,
        0.01,
        0.0,
        0.0,
        0.0,
        0.0,
        1.0
      ],
      "mesh": 8,
      "name": "Solid20"
    },
    {
      "matrix": [
        0.01,
        0.0,
        0.0,
        0.0,
        0.0,
        0.01,
        0.0,
        0.0,
        0.0,
        0.0,
        0.01,
        0.0,
        0.0,
        0.0,
        0.0,
        1.0
      ],
      "mesh": 9,
      "name": "Solid21"
    },
    {
      "children": [
        2,
        3,
        4,
        5,
        6,
        7,
        8,
        9,
        10
      ],
      "matrix": [
        -0.021157254222263652,
        -0.002883152724654668,
        0.9997720030207592,
        0.0,
        0.9997695113000068,
        0.003586001267166437,
        0.021167542839391915,
        0.0,
        -0.0036462129285216066,
        0.999989413956607,
        0.0028066182500804805,
        0.0,
        0.0004478392732256885,
        0.05357662806939024,
        -0.000286713987458371,
        1.0
      ],
      "name": "chop:1"
    },
    {
      "matrix": [
        0.01,
        0.0,
        0.0,
        0.0,
        0.0,
        0.01,
        0.0,
        0.0,
        0.0,
        0.0,
        0.01,
        0.0,
        0.0,
        0.0,
        0.0,
        1.0
      ],
      "mesh": 10,
      "name": "Solid1"
    },
    {
      "children": [
        12
      ],
      "matrix": [
        -0.9843993508478192,
        -0.031532178018503325,
        0.1731000860768178,
        0.0,
        0.17591083872710114,
        -0.15599103312996554,
        0.9719681961882157,
        0.0,
        -0.003646212928521613,
        0.9872550426979116,
        0.15910432363334592,
        0.0,
        0.00037869114049312105,
        0.05883177432418193,
        0.0014465580977999742,
        1.0
      ],
      "name": "tru:1"
    }
  ],
  "scenes": [
    {
      "nodes": [
        1,
        11,
        13
      ]
    }
  ]
}
