{
  "accessors": [
    {
      "bufferView": 0,
      "componentType": 5126,
      "count": 20,
      "max": [
        -3581.39990234375,
        12.699999809265137,
        -50.79999923706055
      ],
      "min": [
        -7061.2001953125,
        0.0,
        -1930.4000244140625
      ],
      "type": "VEC3"
    },
    {
      "bufferView": 0,
      "byteOffset": 12,
      "componentType": 5126,
      "count": 20,
      "type": "VEC3"
    },
    {
      "bufferView": 1,
      "componentType": 5125,
      "count": 30,
      "type": "SCALAR"
    },
    {
      "bufferView": 0,
      "byteOffset": 640,
      "componentType": 5126,
      "count": 4,
      "max": [
        -3581.39990234375,
        12.699999809265137,
        -50.79999923706055
      ],
      "min": [
        -7061.2001953125,
        12.699999809265137,
        -1930.4000244140625
      ],
      "type": "VEC3"
    },
    {
      "bufferView": 0,
      "byteOffset": 652,
      "componentType": 5126,
      "count": 4,
      "type": "VEC3"
    },
    {
      "bufferView": 1,
      "byteOffset": 120,
      "componentType": 5125,
      "count": 6,
      "type": "SCALAR"
    },
    {
      "bufferView": 2,
      "componentType": 5126,
      "count": 40,
      "max": [
        -25.399999618530273,
        12.699999809265137,
        -25.399999618530273
      ],
      "min": [
        -7086.60009765625,
        0.0,
        -1955.800048828125
      ],
      "type": "VEC3"
    },
    {
      "bufferView": 2,
      "byteOffset": 12,
      "componentType": 5126,
      "count": 40,
      "type": "VEC3"
    },
    {
      "bufferView": 3,
      "componentType": 5125,
      "count": 72,
      "type": "SCALAR"
    },
    {
      "bufferView": 2,
      "byteOffset": 1280,
      "componentType": 5126,
      "count": 8,
      "max": [
        -25.399999618530273,
        12.699999809265137,
        -25.399999618530273
      ],
      "min": [
        -7086.60009765625,
        12.699999809265137,
        -1955.800048828125
      ],
      "type": "VEC3"
    },
    {
      "bufferView": 2,
      "byteOffset": 1292,
      "componentType": 5126,
      "count": 8,
      "type": "VEC3"
    },
    {
      "bufferView": 3,
      "byteOffset": 288,
      "componentType": 5125,
      "count": 24,
      "type": "SCALAR"
    },
    {
      "bufferView": 4,
      "componentType": 5126,
      "count": 40,
      "max": [
        0.0,
        12.699999809265137,
        0.0
      ],
      "min": [
        -7112.0,
        0.0,
        -1981.199951171875
      ],
      "type": "VEC3"
    },
    {
      "bufferView": 4,
      "byteOffset": 12,
      "componentType": 5126,
      "count": 40,
      "type": "VEC3"
    },
    {
      "bufferView": 5,
      "componentType": 5125,
      "count": 72,
      "type": "SCALAR"
    },
    {
      "bufferView": 4,
      "byteOffset": 1280,
      "componentType": 5126,
      "count": 8,
      "max": [
        0.0,
        12.699999809265137,
        0.0
      ],
      "min": [
        -7112.0,
        12.699999809265137,
        -1981.199951171875
      ],
      "type": "VEC3"
    },
    {
      "bufferView": 4,
      "byteOffset": 1292,
      "componentType": 5126,
      "count": 8,
      "type": "VEC3"
    },
    {
      "bufferView": 5,
      "byteOffset": 288,
      "componentType": 5125,
      "count": 24,
      "type": "SCALAR"
    }
  ],
  "asset": {
    "version": "2.0"
  },
  "bufferViews": [
    {
      "buffer": 0,
      "byteLength": 768,
      "byteStride": 32,
      "target": 34962
    },
    {
      "buffer": 0,
      "byteLength": 144,
      "byteOffset": 768,
      "target": 34963
    },
    {
      "buffer": 0,
      "byteLength": 1536,
      "byteOffset": 912,
      "byteStride": 32,
      "target": 34962
    },
    {
      "buffer": 0,
      "byteLength": 384,
      "byteOffset": 2448,
      "target": 34963
    },
    {
      "buffer": 0,
      "byteLength": 1536,
      "byteOffset": 2832,
      "byteStride": 32,
      "target": 34962
    },
    {
      "buffer": 0,
      "byteLength": 384,
      "byteOffset": 4368,
      "target": 34963
    }
  ],
  "buffers": [
    {
      "byteLength": 4752,
      "uri": "banner.bin"
    }
  ],
  "materials": [
    {
      "doubleSided": true,
      "name": "XID_Default_B60E9957B4894FD7B1BEB2326C59D0E6_shader",
      "pbrMetallicRoughness": {
        "baseColorFactor": [
          0.52252197265625,
          0.52252197265625,
          0.52252197265625,
          1.0
        ],
        "metallicFactor": 0.0,
        "roughnessFactor": 0.699999988079071
      }
    },
    {
      "doubleSided": true,
      "name": "XID_Default7_67EB7773D28B4CBD8C20E664953CE1A8_shader",
      "pbrMetallicRoughness": {
        "baseColorFactor": [
          0.0,
          0.0,
          0.0,
          1.0
        ],
        "metallicFactor": 0.0,
        "roughnessFactor": 0.699999988079071
      }
    },
    {
      "doubleSided": true,
      "name": "XID_Default6_7332FCBD5D21462DAE99632666E1DE7E_shader",
      "pbrMetallicRoughness": {
        "metallicFactor": 0.0,
        "roughnessFactor": 0.699999988079071
      }
    },
    {
      "doubleSided": true,
      "name": "XID_Default5_4A5611122D944F03A742CBFB8C4189E7_shader",
      "pbrMetallicRoughness": {
        "baseColorFactor": [
          0.021219000220298767,
          0.0,
          0.0,
          1.0
        ],
        "metallicFactor": 0.0,
        "roughnessFactor": 0.699999988079071
      }
    }
  ],
  "meshes": [
    {
      "name": "Solid5",
      "primitives": [
        {
          "attributes": {
            "NORMAL": 1,
            "POSITION": 0
          },
          "indices": 2,
          "material": 0,
          "mode": 4
        },
        {
          "attributes": {
            "NORMAL": 4,
            "POSITION": 3
          },
          "indices": 5,
          "material": 1,
          "mode": 4
        }
      ]
    },
    {
      "name": "Solid6",
      "primitives": [
        {
          "attributes": {
            "NORMAL": 7,
            "POSITION": 6
          },
          "indices": 8,
          "material": 0,
          "mode": 4
        },
        {
          "attributes": {
            "NORMAL": 10,
            "POSITION": 9
          },
          "indices": 11,
          "material": 2,
          "mode": 4
        }
      ]
    },
    {
      "name": "Solid7",
      "primitives": [
        {
          "attributes": {
            "NORMAL": 13,
            "POSITION": 12
          },
          "indices": 14,
          "material": 0,
          "mode": 4
        },
        {
          "attributes": {
            "NORMAL": 16,
            "POSITION": 15
          },
          "indices": 17,
          "material": 3,
          "mode": 4
        }
      ]
    }
  ],
  "nodes": [
    {
      "matrix": [
        0.01,
        0.0,
        0.0,
        0.0,
        0.0,
        0.01,
        0.0,
        0.0,
        0.0,
        0.0,
        0.01,
        0.0,
        0.0,
        0.0,
        0.0,
        1.0
      ],
      "mesh": 0,
      "name": "Solid5"
    },
    {
      "matrix": [
        0.01,
        0.0,
        0.0,
        0.0,
        0.0,
        0.01,
        0.0,
        0.0,
        0.0,
        0.0,
        0.01,
        0.0,
        0.0,
        0.0,
        0.0,
        1.0
      ],
      "mesh": 1,
      "name": "Solid6"
    },
    {
      "matrix": [
        0.01,
        0.0,
        0.0,
        0.0,
        0.0,
        0.01,
        0.0,
        0.0,
        0.0,
        0.0,
        0.01,
        0.0,
        0.0,
        0.0,
        0.0,
        1.0
      ],
      "mesh": 2,
      "name": "Solid7"
    }
  ],
  "scenes": [
    {
      "nodes": [
        0,
        1,
        2
      ]
    }
  ]
}
