{
  "accessors": [
    {
      "bufferView": 0,
      "componentType": 5126,
      "count": 1557,
      "max": [
        3556.0,
        50.79999923706055,
        -25.399999618530273
      ],
      "min": [
        25.399999618530273,
        0.0,
        -1955.800048828125
      ],
      "type": "VEC3"
    },
    {
      "bufferView": 0,
      "byteOffset": 12,
      "componentType": 5126,
      "count": 1557,
      "type": "VEC3"
    },
    {
      "bufferView": 1,
      "componentType": 5125,
      "count": 3621,
      "type": "SCALAR"
    },
    {
      "bufferView": 0,
      "byteOffset": 49824,
      "componentType": 5126,
      "count": 585,
      "max": [
        3530.60009765625,
        27.940000534057617,
        -50.79999923706055
      ],
      "min": [
        50.79999923706055,
        27.940000534057617,
        -1930.4000244140625
      ],
      "type": "VEC3"
    },
    {
      "bufferView": 0,
      "byteOffset": 49836,
      "componentType": 5126,
      "count": 585,
      "type": "VEC3"
    },
    {
      "bufferView": 1,
      "byteOffset": 14484,
      "componentType": 5125,
      "count": 1773,
      "type": "SCALAR"
    },
    {
      "bufferView": 2,
      "componentType": 5126,
      "count": 40,
      "max": [
        3556.0,
        25.399999618530273,
        0.0
      ],
      "min": [
        0.0,
        0.0,
        -1981.199951171875
      ],
      "type": "VEC3"
    },
    {
      "bufferView": 2,
      "byteOffset": 12,
      "componentType": 5126,
      "count": 40,
      "type": "VEC3"
    },
    {
      "bufferView": 3,
      "componentType": 5125,
      "count": 66,
      "type": "SCALAR"
    },
    {
      "bufferView": 2,
      "byteOffset": 1280,
      "componentType": 5126,
      "count": 8,
      "max": [
        3556.0,
        25.399999618530273,
        0.0
      ],
      "min": [
        0.0,
        25.399999618530273,
        -1981.199951171875
      ],
      "type": "VEC3"
    },
    {
      "bufferView": 2,
      "byteOffset": 1292,
      "componentType": 5126,
      "count": 8,
      "type": "VEC3"
    },
    {
      "bufferView": 3,
      "byteOffset": 264,
      "componentType": 5125,
      "count": 18,
      "type": "SCALAR"
    },
    {
      "bufferView": 4,
      "componentType": 5126,
      "count": 788,
      "max": [
        -716.6633911132813,
        50.79999923706055,
        -542.972412109375
      ],
      "min": [
        -1147.66650390625,
        0.0,
        -2933.418212890625
      ],
      "type": "VEC3"
    },
    {
      "bufferView": 4,
      "byteOffset": 12,
      "componentType": 5126,
      "count": 788,
      "type": "VEC3"
    },
    {
      "bufferView": 5,
      "componentType": 5125,
      "count": 1914,
      "type": "SCALAR"
    },
    {
      "bufferView": 4,
      "byteOffset": 25216,
      "componentType": 5126,
      "count": 216,
      "max": [
        -716.6633911132813,
        50.79999923706055,
        -542.972412109375
      ],
      "min": [
        -1147.66650390625,
        50.79999923706055,
        -2933.418212890625
      ],
      "type": "VEC3"
    },
    {
      "bufferView": 4,
      "byteOffset": 25228,
      "componentType": 5126,
      "count": 216,
      "type": "VEC3"
    },
    {
      "bufferView": 5,
      "byteOffset": 7656,
      "componentType": 5125,
      "count": 618,
      "type": "SCALAR"
    },
    {
      "bufferView": 6,
      "componentType": 5126,
      "count": 4,
      "max": [
        -25.399999618530273,
        25.399999618530273,
        -25.399999618530273
      ],
      "min": [
        -1955.800048828125,
        25.399999618530273,
        -3530.60009765625
      ],
      "type": "VEC3"
    },
    {
      "bufferView": 6,
      "byteOffset": 12,
      "componentType": 5126,
      "count": 4,
      "type": "VEC3"
    },
    {
      "bufferView": 7,
      "componentType": 5125,
      "count": 6,
      "type": "SCALAR"
    },
    {
      "bufferView": 6,
      "byteOffset": 128,
      "componentType": 5126,
      "count": 20,
      "max": [
        -25.399999618530273,
        25.399999618530273,
        -25.399999618530273
      ],
      "min": [
        -1955.800048828125,
        0.0,
        -3530.60009765625
      ],
      "type": "VEC3"
    },
    {
      "bufferView": 6,
      "byteOffset": 140,
      "componentType": 5126,
      "count": 20,
      "type": "VEC3"
    },
    {
      "bufferView": 7,
      "byteOffset": 24,
      "componentType": 5125,
      "count": 30,
      "type": "SCALAR"
    },
    {
      "bufferView": 8,
      "componentType": 5126,
      "count": 40,
      "max": [
        0.0,
        25.399999618530273,
        -25.399999618530273
      ],
      "min": [
        -1981.199951171875,
        0.0,
        -3556.0
      ],
      "type": "VEC3"
    },
    {
      "bufferView": 8,
      "byteOffset": 12,
      "componentType": 5126,
      "count": 40,
      "type": "VEC3"
    },
    {
      "bufferView": 9,
      "componentType": 5125,
      "count": 66,
      "type": "SCALAR"
    },
    {
      "bufferView": 8,
      "byteOffset": 1280,
      "componentType": 5126,
      "count": 8,
      "max": [
        0.0,
        25.399999618530273,
        -25.399999618530273
      ],
      "min": [
        -1981.199951171875,
        25.399999618530273,
        -3556.0
      ],
      "type": "VEC3"
    },
    {
      "bufferView": 8,
      "byteOffset": 1292,
      "componentType": 5126,
      "count": 8,
      "type": "VEC3"
    },
    {
      "bufferView": 9,
      "byteOffset": 264,
      "componentType": 5125,
      "count": 18,
      "type": "SCALAR"
    }
  ],
  "asset": {
    "version": "2.0"
  },
  "bufferViews": [
    {
      "buffer": 0,
      "byteLength": 68544,
      "byteStride": 32,
      "target": 34962
    },
    {
      "buffer": 0,
      "byteLength": 21576,
      "byteOffset": 68544,
      "target": 34963
    },
    {
      "buffer": 0,
      "byteLength": 1536,
      "byteOffset": 90120,
      "byteStride": 32,
      "target": 34962
    },
    {
      "buffer": 0,
      "byteLength": 336,
      "byteOffset": 91656,
      "target": 34963
    },
    {
      "buffer": 0,
      "byteLength": 32128,
      "byteOffset": 91992,
      "byteStride": 32,
      "target": 34962
    },
    {
      "buffer": 0,
      "byteLength": 10128,
      "byteOffset": 124120,
      "target": 34963
    },
    {
      "buffer": 0,
      "byteLength": 768,
      "byteOffset": 134248,
      "byteStride": 32,
      "target": 34962
    },
    {
      "buffer": 0,
      "byteLength": 144,
      "byteOffset": 135016,
      "target": 34963
    },
    {
      "buffer": 0,
      "byteLength": 1536,
      "byteOffset": 135160,
      "byteStride": 32,
      "target": 34962
    },
    {
      "buffer": 0,
      "byteLength": 336,
      "byteOffset": 136696,
      "target": 34963
    }
  ],
  "buffers": [
    {
      "byteLength": 137032,
      "uri": "banner(sub).bin"
    }
  ],
  "materials": [
    {
      "doubleSided": true,
      "name": "XID_Default_A522D38ABE534D89B4912DEB4E2E8385_shader",
      "pbrMetallicRoughness": {
        "baseColorFactor": [
          0.52252197265625,
          0.52252197265625,
          0.52252197265625,
          1.0
        ],
        "metallicFactor": 0.0,
        "roughnessFactor": 0.699999988079071
      }
    },
    {
      "doubleSided": true,
      "name": "XID_Default2_88FE746BE92145158B50FE44AD0BFF86_shader",
      "pbrMetallicRoughness": {
        "baseColorFactor": [
          0.0,
          0.0,
          0.0,
          1.0
        ],
        "metallicFactor": 0.0,
        "roughnessFactor": 0.699999988079071
      }
    },
    {
      "doubleSided": true,
      "name": "XID_Default5_ACD7402C303C4CF58BB2F3B111C9492A_shader",
      "pbrMetallicRoughness": {
        "baseColorFactor": [
          0.0,
          0.0,
          0.0,
          1.0
        ],
        "metallicFactor": 0.0,
        "roughnessFactor": 0.699999988079071
      }
    },
    {
      "doubleSided": true,
      "name": "XID_Default3_5AF0407CA3D849838C61F933847249A2_shader",
      "pbrMetallicRoughness": {
        "baseColorFactor": [
          0.0,
          0.0,
          0.0,
          1.0
        ],
        "metallicFactor": 0.0,
        "roughnessFactor": 0.699999988079071
      }
    },
    {
      "doubleSided": true,
      "name": "XID_Default1_26F14A02A7794872AC379A7D0BC1F0B9_shader",
      "pbrMetallicRoughness": {
        "metallicFactor": 0.0,
        "roughnessFactor": 0.699999988079071
      }
    },
    {
      "doubleSided": true,
      "name": "XID_Default2_4138B55393614A1FB1DA6B1BACEE7838_shader",
      "pbrMetallicRoughness": {
        "baseColorFactor": [
          0.0,
          0.0,
          0.0,
          1.0
        ],
        "metallicFactor": 0.0,
        "roughnessFactor": 0.699999988079071
      }
    }
  ],
  "meshes": [
    {
      "name": "Solid1",
      "primitives": [
        {
          "attributes": {
            "NORMAL": 1,
            "POSITION": 0
          },
          "indices": 2,
          "material": 0,
          "mode": 4
        },
        {
          "attributes": {
            "NORMAL": 4,
            "POSITION": 3
          },
          "indices": 5,
          "material": 1,
          "mode": 4
        }
      ]
    },
    {
      "name": "Solid3",
      "primitives": [
        {
          "attributes": {
            "NORMAL": 7,
            "POSITION": 6
          },
          "indices": 8,
          "material": 0,
          "mode": 4
        },
        {
          "attributes": {
            "NORMAL": 10,
            "POSITION": 9
          },
          "indices": 11,
          "material": 2,
          "mode": 4
        }
      ]
    },
    {
      "name": "Solid1",
      "primitives": [
        {
          "attributes": {
            "NORMAL": 13,
            "POSITION": 12
          },
          "indices": 14,
          "material": 0,
          "mode": 4
        },
        {
          "attributes": {
            "NORMAL": 16,
            "POSITION": 15
          },
          "indices": 17,
          "material": 3,
          "mode": 4
        }
      ]
    },
    {
      "name": "Solid2",
      "primitives": [
        {
          "attributes": {
            "NORMAL": 19,
            "POSITION": 18
          },
          "indices": 20,
          "material": 4,
          "mode": 4
        },
        {
          "attributes": {
            "NORMAL": 22,
            "POSITION": 21
          },
          "indices": 23,
          "material": 0,
          "mode": 4
        }
      ]
    },
    {
      "name": "Solid3",
      "primitives": [
        {
          "attributes": {
            "NORMAL": 25,
            "POSITION": 24
          },
          "indices": 26,
          "material": 0,
          "mode": 4
        },
        {
          "attributes": {
            "NORMAL": 28,
            "POSITION": 27
          },
          "indices": 29,
          "material": 5,
          "mode": 4
        }
      ]
    }
  ],
  "nodes": [
    {
      "matrix": [
        0.01,
        0.0,
        0.0,
        0.0,
        0.0,
        0.01,
        0.0,
        0.0,
        0.0,
        0.0,
        0.01,
        0.0,
        0.0,
        0.0,
        0.0,
        1.0
      ],
      "mesh": 0,
      "name": "Solid1"
    },
    {
      "matrix": [
        0.01,
        0.0,
        0.0,
        0.0,
        0.0,
        0.01,
        0.0,
        0.0,
        0.0,
        0.0,
        0.01,
        0.0,
        0.0,
        0.0,
        0.0,
        1.0
      ],
      "mesh": 1,
      "name": "Solid3"
    },
    {
      "children": [
        0,
        1
      ],
      "matrix": [
        1.0,
        7.838510656527074e-16,
        2.91433543964102e-15,
        0.0,
        -7.838510656527073e-16,
        1.0,
        -4.5117959358368973e-17,
        0.0,
        -2.91433543964102e-15,
        4.511795935836669e-17,
        1.0,
        0.0,
        -18.274630134024083,
        -9.942374745457412,
        6.289337934335572,
        1.0
      ],
      "name": "banner1:1"
    },
    {
      "matrix": [
        0.01,
        0.0,
        0.0,
        0.0,
        0.0,
        0.01,
        0.0,
        0.0,
        0.0,
        0.0,
        0.01,
        0.0,
        0.0,
        0.0,
        0.0,
        1.0
      ],
      "mesh": 2,
      "name": "Solid1"
    },
    {
      "matrix": [
        0.01,
        0.0,
        0.0,
        0.0,
        0.0,
        0.01,
        0.0,
        0.0,
        0.0,
        0.0,
        0.01,
        0.0,
        0.0,
        0.0,
        0.0,
        1.0
      ],
      "mesh": 3,
      "name": "Solid2"
    },
    {
      "matrix": [
        0.01,
        0.0,
        0.0,
        0.0,
        0.0,
        0.01,
        0.0,
        0.0,
        0.0,
        0.0,
        0.01,
        0.0,
        0.0,
        0.0,
        0.0,
        1.0
      ],
      "mesh": 4,
      "name": "Solid3"
    },
    {
      "children": [
        3,
        4,
        5
      ],
      "matrix": [
        -2.557305099323975e-16,
        2.0447568078214497e-16,
        1.0,
        0.0,
        0.2049977012629911,
        0.9787624545705099,
        -1.477089525433543e-16,
        0.0,
        -0.9787624545705099,
        0.2049977012629911,
        -2.9221646613452643e-16,
        0.0,
        16.984694786393987,
        -9.884910992797503,
        6.294857890931687,
        1.0
      ],
      "name": "banner2:1"
    }
  ],
  "scenes": [
    {
      "nodes": [
        2,
        6
      ]
    }
  ]
}
