{
  "accessors": [
    {
      "bufferView": 0,
      "componentType": 5126,
      "count": 1757,
      "max": [
        7086.60009765625,
        50.79999923706055,
        -25.399999618530273
      ],
      "min": [
        25.399999618530273,
        0.0,
        -1955.800048828125
      ],
      "type": "VEC3"
    },
    {
      "bufferView": 0,
      "byteOffset": 12,
      "componentType": 5126,
      "count": 1757,
      "type": "VEC3"
    },
    {
      "bufferView": 1,
      "componentType": 5125,
      "count": 4251,
      "type": "SCALAR"
    },
    {
      "bufferView": 0,
      "byteOffset": 56224,
      "componentType": 5126,
      "count": 514,
      "max": [
        6513.06494140625,
        50.79999923706055,
        -789.7357177734375
      ],
      "min": [
        4162.57666015625,
        25.399999618530273,
        -1222.0635986328125
      ],
      "type": "VEC3"
    },
    {
      "bufferView": 0,
      "byteOffset": 56236,
      "componentType": 5126,
      "count": 514,
      "type": "VEC3"
    },
    {
      "bufferView": 0,
      "byteOffset": 56248,
      "componentType": 5126,
      "count": 514,
      "type": "VEC2"
    },
    {
      "bufferView": 1,
      "byteOffset": 17004,
      "componentType": 5125,
      "count": 1008,
      "type": "SCALAR"
    },
    {
      "bufferView": 0,
      "byteOffset": 72672,
      "componentType": 5126,
      "count": 188,
      "max": [
        6513.06494140625,
        50.79999923706055,
        -789.7357177734375
      ],
      "min": [
        4162.57666015625,
        50.79999923706055,
        -1222.0635986328125
      ],
      "type": "VEC3"
    },
    {
      "bufferView": 0,
      "byteOffset": 72684,
      "componentType": 5126,
      "count": 188,
      "type": "VEC3"
    },
    {
      "bufferView": 1,
      "byteOffset": 21036,
      "componentType": 5125,
      "count": 534,
      "type": "SCALAR"
    },
    {
      "bufferView": 0,
      "byteOffset": 78688,
      "componentType": 5126,
      "count": 585,
      "max": [
        3530.60009765625,
        27.940000534057617,
        -50.79999923706055
      ],
      "min": [
        50.79999923706055,
        27.940000534057617,
        -1930.4000244140625
      ],
      "type": "VEC3"
    },
    {
      "bufferView": 0,
      "byteOffset": 78700,
      "componentType": 5126,
      "count": 585,
      "type": "VEC3"
    },
    {
      "bufferView": 1,
      "byteOffset": 23172,
      "componentType": 5125,
      "count": 1773,
      "type": "SCALAR"
    },
    {
      "bufferView": 2,
      "componentType": 5126,
      "count": 40,
      "max": [
        7112.0,
        25.399999618530273,
        0.0
      ],
      "min": [
        0.0,
        0.0,
        -1981.199951171875
      ],
      "type": "VEC3"
    },
    {
      "bufferView": 2,
      "byteOffset": 12,
      "componentType": 5126,
      "count": 40,
      "type": "VEC3"
    },
    {
      "bufferView": 3,
      "componentType": 5125,
      "count": 72,
      "type": "SCALAR"
    },
    {
      "bufferView": 2,
      "byteOffset": 1280,
      "componentType": 5126,
      "count": 8,
      "max": [
        7112.0,
        25.399999618530273,
        0.0
      ],
      "min": [
        0.0,
        25.399999618530273,
        -1981.199951171875
      ],
      "type": "VEC3"
    },
    {
      "bufferView": 2,
      "byteOffset": 1292,
      "componentType": 5126,
      "count": 8,
      "type": "VEC3"
    },
    {
      "bufferView": 3,
      "byteOffset": 288,
      "componentType": 5125,
      "count": 24,
      "type": "SCALAR"
    }
  ],
  "asset": {
    "version": "2.0"
  },
  "bufferViews": [
    {
      "buffer": 0,
      "byteLength": 97408,
      "byteStride": 32,
      "target": 34962
    },
    {
      "buffer": 0,
      "byteLength": 30264,
      "byteOffset": 97408,
      "target": 34963
    },
    {
      "buffer": 0,
      "byteLength": 1536,
      "byteOffset": 127672,
      "byteStride": 32,
      "target": 34962
    },
    {
      "buffer": 0,
      "byteLength": 384,
      "byteOffset": 129208,
      "target": 34963
    }
  ],
  "buffers": [
    {
      "byteLength": 129592,
      "uri": "banner1.bin"
    }
  ],
  "extensionsUsed": [
    "KHR_texture_transform"
  ],
  "images": [
    {
      "uri": "black_normalmap.png"
    }
  ],
  "materials": [
    {
      "doubleSided": true,
      "name": "XID_Default_A522D38ABE534D89B4912DEB4E2E8385_shader",
      "pbrMetallicRoughness": {
        "baseColorFactor": [
          0.52252197265625,
          0.52252197265625,
          0.52252197265625,
          1.0
        ],
        "metallicFactor": 0.0,
        "roughnessFactor": 0.699999988079071
      }
    },
    {
      "doubleSided": true,
      "name": "XID_Black_0539451D496B4F47BBE1F7031D2DA812_shader",
      "normalTexture": {
        "extensions": {
          "KHR_texture_transform": {
            "scale": [
              0.012303149327635765,
              0.012303149327635765
            ]
          }
        },
        "index": 0
      },
      "pbrMetallicRoughness": {
        "baseColorFactor": [
          0.0,
          0.0,
          0.0,
          1.0
        ],
        "metallicFactor": 0.0,
        "roughnessFactor": 0.5
      }
    },
    {
      "doubleSided": true,
      "name": "XID_Default3_9CFDA7F044EE41B8A3B665769C700062_shader",
      "pbrMetallicRoughness": {
        "baseColorFactor": [
          0.0,
          0.0,
          0.0,
          1.0
        ],
        "metallicFactor": 0.0,
        "roughnessFactor": 0.699999988079071
      }
    },
    {
      "doubleSided": true,
      "name": "XID_Default2_88FE746BE92145158B50FE44AD0BFF86_shader",
      "pbrMetallicRoughness": {
        "baseColorFactor": [
          0.0,
          0.0,
          0.0,
          1.0
        ],
        "metallicFactor": 0.0,
        "roughnessFactor": 0.699999988079071
      }
    },
    {
      "doubleSided": true,
      "name": "XID_Default5_ACD7402C303C4CF58BB2F3B111C9492A_shader",
      "pbrMetallicRoughness": {
        "baseColorFactor": [
          0.0,
          0.0,
          0.0,
          1.0
        ],
        "metallicFactor": 0.0,
        "roughnessFactor": 0.699999988079071
      }
    }
  ],
  "meshes": [
    {
      "name": "Solid1",
      "primitives": [
        {
          "attributes": {
            "NORMAL": 1,
            "POSITION": 0
          },
          "indices": 2,
          "material": 0,
          "mode": 4
        },
        {
          "attributes": {
            "NORMAL": 4,
            "POSITION": 3,
            "TEXCOORD_0": 5
          },
          "indices": 6,
          "material": 1,
          "mode": 4
        },
        {
          "attributes": {
            "NORMAL": 8,
            "POSITION": 7
          },
          "indices": 9,
          "material": 2,
          "mode": 4
        },
        {
          "attributes": {
            "NORMAL": 11,
            "POSITION": 10
          },
          "indices": 12,
          "material": 3,
          "mode": 4
        }
      ]
    },
    {
      "name": "Solid3",
      "primitives": [
        {
          "attributes": {
            "NORMAL": 14,
            "POSITION": 13
          },
          "indices": 15,
          "material": 0,
          "mode": 4
        },
        {
          "attributes": {
            "NORMAL": 17,
            "POSITION": 16
          },
          "indices": 18,
          "material": 4,
          "mode": 4
        }
      ]
    }
  ],
  "nodes": [
    {
      "matrix": [
        0.01,
        0.0,
        0.0,
        0.0,
        0.0,
        0.01,
        0.0,
        0.0,
        0.0,
        0.0,
        0.01,
        0.0,
        0.0,
        0.0,
        0.0,
        1.0
      ],
      "mesh": 0,
      "name": "Solid1"
    },
    {
      "matrix": [
        0.01,
        0.0,
        0.0,
        0.0,
        0.0,
        0.01,
        0.0,
        0.0,
        0.0,
        0.0,
        0.01,
        0.0,
        0.0,
        0.0,
        0.0,
        1.0
      ],
      "mesh": 1,
      "name": "Solid3"
    }
  ],
  "samplers": [
    {
      "magFilter": 9729,
      "minFilter": 9729,
      "wrapS": 10497,
      "wrapT": 10497
    }
  ],
  "scenes": [
    {
      "nodes": [
        0,
        1
      ]
    }
  ],
  "textures": [
    {
      "name": "texture_source0_sampler0",
      "sampler": 0,
      "source": 0
    }
  ]
}
